<svg width="20" height="18" viewBox="0 0 20 18" fill="none" xmlns="http://www.w3.org/2000/svg">
<path d="M16 14C16.5304 14 17.0391 14.1756 17.4142 14.4882C17.7893 14.8007 18 15.2246 18 15.6667C18 16.1087 17.7893 16.5326 17.4142 16.8452C17.0391 17.1577 16.5304 17.3333 16 17.3333C15.4696 17.3333 14.9609 17.1577 14.5858 16.8452C14.2107 16.5326 14 16.1087 14 15.6667C14 14.7417 14.89 14 16 14ZM0 0.666668H3.27L4.21 2.33333H19C19.2652 2.33333 19.5196 2.42113 19.7071 2.57741C19.8946 2.73369 20 2.94565 20 3.16667C20 3.30833 19.95 3.45 19.88 3.58333L16.3 8.975C15.96 9.48333 15.3 9.83333 14.55 9.83333H7.1L6.2 11.1917L6.17 11.2917C6.17 11.3469 6.19634 11.3999 6.24322 11.439C6.29011 11.4781 6.3537 11.5 6.42 11.5H18V13.1667H6C5.46957 13.1667 4.96086 12.9911 4.58579 12.6785C4.21071 12.366 4 11.942 4 11.5C4 11.2083 4.09 10.9333 4.24 10.7L5.6 8.65833L2 2.33333H0V0.666668ZM6 14C6.53043 14 7.03914 14.1756 7.41421 14.4882C7.78929 14.8007 8 15.2246 8 15.6667C8 16.1087 7.78929 16.5326 7.41421 16.8452C7.03914 17.1577 6.53043 17.3333 6 17.3333C5.46957 17.3333 4.96086 17.1577 4.58579 16.8452C4.21071 16.5326 4 16.1087 4 15.6667C4 14.7417 4.89 14 6 14ZM15 8.16667L17.78 4H5.14L7.5 8.16667H15Z" fill="#001C30"/>
</svg>
