<svg width="24" height="18" viewBox="0 0 24 18" fill="none" xmlns="http://www.w3.org/2000/svg">
<path d="M12.12 15.2534L12 15.3515L11.868 15.2534C6.168 11.0256 2.4 8.22997 2.4 5.3951C2.4 3.43324 4.2 1.96185 6.6 1.96185C8.448 1.96185 10.248 2.94278 10.884 4.27684H13.116C13.752 2.94278 15.552 1.96185 17.4 1.96185C19.8 1.96185 21.6 3.43324 21.6 5.3951C21.6 8.22997 17.832 11.0256 12.12 15.2534ZM17.4 0C15.312 0 13.308 0.79455 12 2.04033C10.692 0.79455 8.688 0 6.6 0C2.904 0 0 2.36403 0 5.3951C0 9.09319 4.08 12.1243 10.26 16.7052L12 18L13.74 16.7052C19.92 12.1243 24 9.09319 24 5.3951C24 2.36403 21.096 0 17.4 0Z" fill="#001C30"/>
</svg>
