<svg width="16" height="16" viewBox="0 0 16 16" fill="none" xmlns="http://www.w3.org/2000/svg">
<path d="M5.2865 3.62097e-05C4.9372 0.0143469 4.57256 0.0519894 4.1975 0.112058C4.49117 1.42538 5.1573 2.60994 6.46504 3.6435V3.26309C6.13391 2.89188 5.87184 2.33887 5.65863 1.71993C5.46482 1.15714 5.32936 0.552537 5.2865 3.62097e-05ZM10.7135 3.62097e-05C10.6706 0.552537 10.5352 1.15721 10.3414 1.71996C10.1282 2.33887 9.86609 2.89192 9.53496 3.26309V3.6435C10.8427 2.60987 11.5088 1.42531 11.8025 0.112022C11.4274 0.0519532 11.0628 0.0143469 10.7135 3.62097e-05ZM5.96592 0.0790167C5.99531 0.345051 6.04948 0.633692 6.12234 0.92255C6.77189 1.25709 7.3801 1.43571 8 1.43571C8.6199 1.43571 9.22811 1.25709 9.87766 0.92255C9.95052 0.633728 10.0047 0.345051 10.0341 0.0790167C9.24691 0.563044 8.61398 0.783573 8 0.783573C7.38602 0.783573 6.75309 0.563044 5.96592 0.0790167ZM3.53684 0.238717C2.38386 0.494932 1.16196 0.946607 0 1.56867C1.12909 6.03596 1.70526 12.0062 1.19285 16H6.46504V4.46569C4.7703 3.27653 3.89081 1.81688 3.53684 0.238717ZM12.4632 0.238717C12.1092 1.81684 11.2297 3.27653 9.53496 4.46573V16H14.8071C14.2947 12.0062 14.8709 6.03596 16 1.56867C14.838 0.946607 13.6161 0.494932 12.4632 0.238717ZM5.68098 5.75608L5.7538 10.3993L5.57084 10.4925C4.55934 11.0084 3.4131 11.0294 2.27769 10.7272L2.03397 10.6624L1.96583 6.31938L1.96096 6.01092L5.68098 5.75608ZM10.319 5.75608L13.721 5.98911L14.039 6.01085L13.966 10.6624L13.7223 10.7272C12.5869 11.0294 11.4407 11.0084 10.4292 10.4925L10.2462 10.3993L10.319 5.75608ZM4.56181 6.48647L3.13797 6.584L3.90036 7.22418L4.56181 6.48647ZM11.4382 6.48647L12.0997 7.22422L12.862 6.58404L11.4382 6.48647ZM5.02593 6.96398L3.96756 8.14419L2.65105 7.03854L2.69999 10.1547C3.55305 10.343 4.3528 10.3094 5.07348 9.99694L5.02593 6.96398ZM10.9741 6.96398L10.9265 9.99694C11.6472 10.3094 12.447 10.343 13.3 10.1547L13.3489 7.03854L12.0324 8.14419L10.9741 6.96398ZM7.13893 15.3479V16H8.86107V15.3479H7.13893Z" fill="#9BCDD2"/>
</svg>
