<svg width="16" height="16" viewBox="0 0 16 16" fill="none" xmlns="http://www.w3.org/2000/svg">
<path d="M15.9877 14.3348L14.2277 1.29778C14.1794 0.939411 13.9913 0.609745 13.6989 0.370757C13.4065 0.13177 13.0298 -7.86166e-05 12.6398 3.51684e-08H3.3602C2.97017 -7.86166e-05 2.59355 0.13177 2.30113 0.370757C2.00871 0.609745 1.82064 0.939411 1.77227 1.29778L0.012348 14.3348C-0.0157856 14.5433 0.00428536 14.7549 0.0712288 14.9556C0.138172 15.1564 0.250457 15.3416 0.400631 15.4991C0.550806 15.6566 0.735434 15.7827 0.942264 15.869C1.14909 15.9554 1.37339 16 1.60028 16H4.85534C5.21045 16.001 5.55578 15.8923 5.8366 15.691C6.11743 15.4897 6.31769 15.2075 6.40567 14.8889L8 9.18518L9.59273 14.8844C9.68062 15.2037 9.88093 15.4867 10.162 15.6888C10.4431 15.8908 10.7888 16.0003 11.1447 16H14.3997C14.6266 16 14.8509 15.9554 15.0577 15.869C15.2646 15.7827 15.4492 15.6566 15.5994 15.4991C15.7495 15.3416 15.8618 15.1564 15.9288 14.9556C15.9957 14.7549 16.0158 14.5433 15.9877 14.3348ZM12.9598 6.23926C12.6667 6.08227 12.4158 5.86592 12.2259 5.60641C12.036 5.3469 11.9119 5.05095 11.863 4.74074H12.7574L12.9598 6.23926ZM12.3574 1.77778L12.5174 2.96296H3.4826L3.64259 1.77778H12.3574ZM3.24261 4.74074H4.13697C4.08826 5.0509 3.96426 5.34681 3.7743 5.60623C3.58435 5.86564 3.33336 6.08182 3.04022 6.23852L3.24261 4.74074ZM4.60815 14.2222H1.96266L2.77383 8.21407C3.65397 8.04172 4.45027 7.61029 5.04374 6.98426C5.63721 6.35822 5.99599 5.57119 6.06648 4.74074H7.04004V5.51629L4.60815 14.2222ZM11.3927 14.2222L8.95996 5.51629V4.74074H9.93352C10.004 5.57109 10.3629 6.35802 10.9563 6.98393C11.5498 7.60984 12.3461 8.04112 13.2262 8.21333L14.0373 14.2222H11.3927Z" fill="#9BCDD2"/>
</svg>
