<svg width="16" height="16" viewBox="0 0 16 16" fill="none" xmlns="http://www.w3.org/2000/svg">
<path d="M8.88889 14.3158H14.2222V10.9474H10.6667V9.26316H14.2222V2.52632H12.4444V6.73684L8.88889 5.38947V14.3158ZM7.11111 14.3158V5.38947L3.55556 6.73684V2.52632H1.77778V14.3158H7.11111ZM3.55556 0.842105V0H12.4444V0.842105H15.1111C15.3469 0.842105 15.573 0.930827 15.7397 1.08875C15.9064 1.24668 16 1.46087 16 1.68421V15.1579C16 15.3812 15.9064 15.5954 15.7397 15.7534C15.573 15.9113 15.3469 16 15.1111 16H0.888889C0.653141 16 0.427049 15.9113 0.26035 15.7534C0.0936507 15.5954 0 15.3812 0 15.1579V1.68421C0 1.46087 0.0936507 1.24668 0.26035 1.08875C0.427049 0.930827 0.653141 0.842105 0.888889 0.842105H3.55556ZM8 4.21053L11.1111 1.68421H4.88889L8 4.21053Z" fill="#9BCDD2"/>
</svg>
