<svg width="16" height="16" viewBox="0 0 16 16" fill="none" xmlns="http://www.w3.org/2000/svg">
<path fill-rule="evenodd" clip-rule="evenodd" d="M12.7838 0.682148C12.6651 0.463622 12.4338 0.273346 12.2245 0.273346C11.8496 0.273346 11.3676 0.672178 11.0763 0.913969C10.6396 1.27541 10.1303 1.61857 9.58355 1.73822C9.17893 1.82547 8.6962 1.75982 8.26971 1.64101C8.19941 1.6219 7.59482 1.39672 7.59482 1.39672C6.75746 0.985427 6.38565 2.1545 6.05523 2.73032C5.82871 3.12333 5.5436 3.59196 5.21944 4.06474C5.08999 4.05202 4.95961 4.07386 4.84011 4.1283C4.72061 4.18273 4.61577 4.26802 4.53509 4.37645C4.45442 4.48488 4.40046 4.61301 4.3781 4.74923C4.35575 4.88545 4.36571 5.02545 4.40708 5.15654C4.16649 5.46979 3.9384 5.76974 3.72203 6.0589C3.57216 6.0139 3.41306 6.01758 3.26517 6.06947C3.11728 6.12136 2.98734 6.21909 2.89204 6.35011C2.79675 6.48113 2.74045 6.63945 2.73036 6.80476C2.72028 6.97007 2.75688 7.13481 2.83546 7.27783C1.99811 8.46851 1.42164 9.4365 1.08888 10.2981C0.807681 11.0293 0.687389 11.7132 0.739724 12.4103C0.792059 13.0974 1.00687 13.7381 1.3076 14.3845C1.71534 15.2611 2.71517 15.5012 3.44708 15.0517L14.9467 7.98908C15.3055 7.7687 15.5673 7.40574 15.6746 6.98003C15.7818 6.55432 15.7256 6.10074 15.5185 5.71906L12.7846 0.682148H12.7838ZM12.9931 4.39128L11.8847 2.34976C11.2879 2.80343 10.6217 3.20808 9.89678 3.36595C9.15159 3.52798 8.39781 3.3942 7.87602 3.24963C7.55498 3.16072 7.56045 3.29699 7.38782 3.59694C7.19098 3.9401 6.94727 4.34392 6.66919 4.76519L6.7559 4.81089C6.84851 4.85881 6.9313 4.92573 6.9995 5.00782C7.06771 5.0899 7.11998 5.18552 7.15331 5.28918C7.18664 5.39283 7.20037 5.50248 7.19371 5.6118C7.18705 5.72112 7.16013 5.82796 7.11451 5.92618C7.06888 6.02439 7.00545 6.11204 6.92786 6.18407C6.85027 6.25611 6.76006 6.31112 6.66241 6.34592C6.56476 6.38073 6.4616 6.39465 6.35887 6.38689C6.25614 6.37913 6.15587 6.34983 6.06383 6.30069L5.69436 6.10626C5.50845 6.34888 5.33192 6.57987 5.1632 6.80421C5.33515 6.91415 5.46074 7.09025 5.51395 7.29601C5.56716 7.50177 5.5439 7.72142 5.44899 7.90944C5.35409 8.09745 5.19482 8.23942 5.00419 8.30591C4.81355 8.37241 4.60618 8.35833 4.42504 8.2666L4.18133 8.13864C3.33304 9.33264 2.81281 10.2051 2.53317 10.9288C2.32618 11.4664 2.26759 11.8877 2.29649 12.2773C2.32539 12.6645 2.44647 13.0783 2.68549 13.6001L14.1648 6.54996L13.7742 5.8304L10.392 7.90765C10.2127 8.01609 10.0003 8.04469 9.80127 7.98721C9.60221 7.92972 9.43261 7.79081 9.32947 7.60079C9.22633 7.41078 9.19804 7.18508 9.25076 6.97295C9.30348 6.76083 9.43294 6.5795 9.61089 6.46853L12.9931 4.39128Z" fill="#9BCDD2"/>
</svg>
