<svg width="16" height="9" viewBox="0 0 16 9" fill="none" xmlns="http://www.w3.org/2000/svg">
<path d="M3.68202 0.000120735C2.52051 0.00235507 1.6373 0.416601 0.705264 0.840567C0.41297 0.924076 0.182156 1.06344 0.0607843 1.42541C-0.0613481 1.78983 0.0236812 2.16564 0.113932 2.4246C0.280533 2.90247 0.541395 3.34683 0.642919 3.6369C0.762734 4.63185 0.921797 5.61127 1.17775 6.46893C1.62658 7.97308 2.45181 9.09685 3.76079 8.99339C5.38077 8.86548 6.29721 7.86874 6.78654 6.69091C7.2759 5.51296 7.35958 4.19867 7.46221 3.5358C7.72542 2.60631 8.26713 2.59525 8.53778 3.5358C8.64038 4.19867 8.72406 5.51296 9.21345 6.69085C9.70274 7.86868 10.6192 8.86542 12.2392 8.99334C13.5481 9.09684 14.3734 7.97308 14.8222 6.46898C15.0782 5.61127 15.2372 4.6318 15.357 3.63696C15.4586 3.34677 15.7194 2.90242 15.8861 2.4246C15.9763 2.16564 16.0613 1.78983 15.9392 1.42546C15.8178 1.0635 15.587 0.924076 15.2947 0.840623C14.3627 0.416657 13.4794 0.00235468 12.3179 6.44806e-05C11.3885 -0.00177885 10.2807 0.260142 8.82652 0.991721L8.63609 1.08752C7.99994 1.26984 8.00001 1.26984 7.36387 1.08752L7.17347 0.991721C5.71923 0.260142 4.61146 -0.00177839 3.68205 9.07892e-06L3.68202 0.000120735ZM3.68706 0.924579C4.5097 0.925696 5.49467 1.16734 6.80912 1.80558C6.89349 2.16363 6.98869 2.77835 6.88236 3.3866C6.76489 4.17956 6.68007 5.24724 6.2997 6.16299C5.90716 7.10789 5.22102 7.92979 3.73222 8.04743C2.62422 8.13502 2.09205 7.35177 1.70591 6.05775C1.48529 5.31874 1.33854 4.41199 1.22243 3.45475L1.2237 3.45419L1.08366 1.65219C1.92842 1.26526 2.69538 0.923238 3.6871 0.924579H3.68706ZM12.3128 0.924579C13.3045 0.923294 14.0716 1.2652 14.9164 1.65219L14.7763 3.45419L14.7776 3.45475C14.6614 4.41199 14.5147 5.31874 14.2942 6.05775C13.9079 7.35177 13.3757 8.13502 12.2678 8.04743C10.779 7.92974 10.0928 7.10789 9.70022 6.16299C9.31985 5.2473 9.23513 4.17956 9.11763 3.3866C9.02756 2.64446 9.1065 2.16363 9.19077 1.80558C10.5052 1.16734 11.4902 0.925696 12.3128 0.924579ZM3.77929 1.51277C3.1374 1.51668 2.46553 1.69906 1.91411 2.16363C1.46908 4.51114 2.03565 5.73858 2.46737 6.63231C2.51291 4.52851 1.94429 2.06923 5.78693 2.16363C5.38029 1.79809 4.60455 1.50785 3.77929 1.51288V1.51277ZM11.7974 1.51277C11.1555 1.51668 10.4837 1.69906 9.93224 2.16363C9.48721 4.51114 10.0538 5.73858 10.4855 6.63231C10.531 4.52851 9.96246 2.06923 13.8051 2.16363C13.3984 1.79809 12.6227 1.50785 11.7974 1.51288V1.51277Z" fill="#9BCDD2"/>
</svg>
