<svg width="18" height="18" viewBox="0 0 18 18" fill="none" xmlns="http://www.w3.org/2000/svg">
<path d="M11.6667 1L17 3V8H14.3333V16C14.3333 16.2652 14.2397 16.5196 14.073 16.7071C13.9063 16.8946 13.6802 17 13.4444 17H4.55556C4.31981 17 4.09372 16.8946 3.92702 16.7071C3.76032 16.5196 3.66667 16.2652 3.66667 16V8H1V3L6.33333 1C6.33333 1.79565 6.61428 2.55871 7.11438 3.12132C7.61448 3.68393 8.29276 4 9 4C9.70724 4 10.3855 3.68393 10.8856 3.12132C11.3857 2.55871 11.6667 1.79565 11.6667 1Z" stroke="#9BCDD2" stroke-width="2" stroke-linecap="round" stroke-linejoin="round"/>
</svg>
