<svg width="15" height="18" viewBox="0 0 15 18" fill="none" xmlns="http://www.w3.org/2000/svg">
<path d="M15 9C15 8.10522 14.7656 7.22106 14.3132 6.40834C13.8607 5.59563 13.2008 4.87365 12.3789 4.29207L11.7178 1.27474C11.6393 0.917063 11.4116 0.593519 11.0743 0.36055C10.737 0.127582 10.3116 -2.18401e-05 9.87221 2.8038e-09H5.12329C4.68391 -2.18401e-05 4.25846 0.127582 3.92117 0.36055C3.58389 0.593519 3.35616 0.917063 3.27773 1.27474L2.62129 4.29207C1.79929 4.8736 1.13933 5.59557 0.686824 6.40829C0.234315 7.22101 0 8.1052 0 9C0 9.8948 0.234315 10.779 0.686824 11.5917C1.13933 12.4044 1.79929 13.1264 2.62129 13.7079L3.27773 16.7253C3.35616 17.0829 3.58389 17.4065 3.92117 17.6394C4.25846 17.8724 4.68391 18 5.12329 18H9.87221C10.3116 18 10.737 17.8724 11.0743 17.6394C11.4116 17.4065 11.6393 17.0829 11.7178 16.7253L12.3789 13.7079C13.2008 13.1263 13.8607 12.4044 14.3132 11.5917C14.7656 10.7789 15 9.89478 15 9ZM5.43463 1.86207H9.56087L9.83282 3.10345C8.31716 2.69175 6.68209 2.69175 5.16643 3.10345L5.43463 1.86207ZM9.56087 16.1379H5.43463L5.16267 14.8966C6.67834 15.3083 8.31341 15.3083 9.82907 14.8966L9.56087 16.1379ZM7.49775 13.3448C6.45909 13.3448 5.44375 13.09 4.58013 12.6126C3.71651 12.1352 3.04341 11.4566 2.64593 10.6627C2.24845 9.86878 2.14445 8.99518 2.34708 8.15237C2.54972 7.30955 3.04988 6.53538 3.78433 5.92774C4.51877 5.32011 5.45451 4.9063 6.47322 4.73866C7.49192 4.57101 8.54784 4.65705 9.50744 4.9859C10.467 5.31475 11.2872 5.87164 11.8643 6.58614C12.4413 7.30065 12.7493 8.14067 12.7493 9C12.7478 10.1519 12.1941 11.2563 11.2095 12.0709C10.225 12.8854 8.8901 13.3436 7.49775 13.3448ZM11.2489 9C11.2489 9.24693 11.1303 9.48374 10.9193 9.65834C10.7082 9.83294 10.422 9.93103 10.1235 9.93103H7.49775C7.19929 9.93103 6.91306 9.83294 6.70202 9.65834C6.49097 9.48374 6.37241 9.24693 6.37241 9V6.82759C6.37241 6.58066 6.49097 6.34385 6.70202 6.16925C6.91306 5.99464 7.19929 5.89655 7.49775 5.89655C7.79621 5.89655 8.08244 5.99464 8.29348 6.16925C8.50452 6.34385 8.62309 6.58066 8.62309 6.82759V8.06896H10.1235C10.422 8.06896 10.7082 8.16706 10.9193 8.34166C11.1303 8.51626 11.2489 8.75307 11.2489 9Z" fill="#9BCDD2"/>
</svg>
